<svg width="32" height="32" viewBox="0 0 32 32" fill="none" xmlns="http://www.w3.org/2000/svg">
<path d="M12.5 1C11.0418 1.00159 9.64377 1.58156 8.61267 2.61267C7.58156 3.64377 7.00159 5.0418 7 6.5C7 8.158 7.74 9.643 8.904 10.652C8.02698 11.1222 7.29379 11.8213 6.78244 12.6749C6.27108 13.5286 6.00068 14.5049 6 15.5C6 17.36 6.932 19.004 8.35 20C7.62517 20.5057 7.03307 21.1788 6.62395 21.9622C6.21484 22.7456 6.0008 23.6162 6 24.5C6 27.533 8.467 30 11.5 30C14.533 30 17 27.533 17 24.5V12H20.5C23.533 12 26 9.533 26 6.5C26 3.467 23.533 1 20.5 1H12.5ZM12.5 3H20.5C22.43 3 24 4.57 24 6.5C24 8.43 22.43 10 20.5 10H12.5C10.57 10 9 8.43 9 6.5C9 4.57 10.57 3 12.5 3ZM11.5 12H15V19H11.5C9.57 19 8 17.43 8 15.5C8 13.57 9.57 12 11.5 12ZM21 12C19.9391 12 18.9217 12.4214 18.1716 13.1716C17.4214 13.9217 17 14.9391 17 16C17 17.0609 17.4214 18.0783 18.1716 18.8284C18.9217 19.5786 19.9391 20 21 20C22.0609 20 23.0783 19.5786 23.8284 18.8284C24.5786 18.0783 25 17.0609 25 16C25 14.9391 24.5786 13.9217 23.8284 13.1716C23.0783 12.4214 22.0609 12 21 12V12ZM11.5 21H15V24.5C15 26.43 13.43 28 11.5 28C9.57 28 8 26.43 8 24.5C8 22.57 9.57 21 11.5 21Z" fill="black"/>
</svg>
