<svg width="32" height="32" viewBox="0 0 32 32" fill="none" xmlns="http://www.w3.org/2000/svg">
<path d="M8.643 4C8.29609 3.99974 7.95254 4.06782 7.63195 4.20036C7.31136 4.33291 7.02003 4.52731 6.77459 4.77247C6.52915 5.01763 6.33442 5.30874 6.20151 5.62918C6.06861 5.94961 6.00013 6.2931 6 6.64C6 8.1 7.183 9.31 8.64 9.31C10.099 9.31 11.283 8.1 11.283 6.642C11.2833 6.29514 11.2152 5.95163 11.0826 5.6311C10.9501 5.31057 10.7556 5.0193 10.5105 4.77395C10.2653 4.52859 9.97418 4.33395 9.65375 4.20115C9.33332 4.06835 8.98986 4 8.643 4V4ZM21.535 11C19.316 11 18.047 12.16 17.437 13.314H17.373V11.311H13V26H17.557V18.729C17.557 16.813 17.701 14.961 20.072 14.961C22.409 14.961 22.443 17.146 22.443 18.85V26H27V17.932C27 13.984 26.151 11 21.535 11ZM6.363 11.31V26H10.923V11.31H6.363V11.31Z" fill="white"/>
</svg>
